<mxfile host="app.diagrams.net" modified="2020-10-01T11:41:48.820Z" agent="5.0 (Macintosh; Intel Mac OS X 10_15_2) AppleWebKit/605.1.15 (KHTML, like Gecko) Version/13.0.4 Safari/605.1.15" etag="FsxpIrQQuySoKUyiRpsL" version="13.7.7" type="github">
  <diagram name="Page-1" id="97916047-d0de-89f5-080d-49f4d83e522f">
    <mxGraphModel dx="4318.5" dy="1205" grid="1" gridSize="10" guides="1" tooltips="1" connect="1" arrows="1" fold="1" page="1" pageScale="1.5" pageWidth="1169" pageHeight="827" background="#ffffff" math="0" shadow="0">
      <root>
        <mxCell id="0" />
        <mxCell id="1" parent="0" />
        <mxCell id="3" value="Homepage" style="rounded=1;fillColor=#10739E;strokeColor=none;shadow=1;gradientColor=none;fontStyle=1;fontColor=#FFFFFF;fontSize=14;" parent="1" vertex="1">
          <mxGeometry x="662" y="345.5" width="220" height="60" as="geometry" />
        </mxCell>
        <mxCell id="4" value="Actualites" style="rounded=1;fillColor=#dae8fc;strokeColor=#6c8ebf;shadow=1;fontStyle=1;fontSize=14;" parent="1" vertex="1">
          <mxGeometry x="-110" y="455.5" width="200" height="60" as="geometry" />
        </mxCell>
        <mxCell id="5" value="Biographie" style="rounded=1;fillColor=#dae8fc;strokeColor=#6c8ebf;shadow=1;fontStyle=1;fontSize=14;" parent="1" vertex="1">
          <mxGeometry x="152" y="455.5" width="200" height="60" as="geometry" />
        </mxCell>
        <mxCell id="6" value="Consultations" style="rounded=1;fillColor=#dae8fc;strokeColor=#6c8ebf;shadow=1;fontStyle=1;fontSize=14;" parent="1" vertex="1">
          <mxGeometry x="410" y="455.5" width="200" height="60" as="geometry" />
        </mxCell>
        <mxCell id="l_ol0fPT-9OiquwSYkWa-55" value="Medecine Esthetique" style="rounded=1;fillColor=#dae8fc;strokeColor=#6c8ebf;shadow=1;fontStyle=1;fontSize=14;" vertex="1" parent="1">
          <mxGeometry x="670" y="455.5" width="200" height="60" as="geometry" />
        </mxCell>
        <mxCell id="l_ol0fPT-9OiquwSYkWa-58" value="Actualite" style="rounded=1;shadow=1;fontStyle=1;fontSize=14;fillColor=#e1d5e7;strokeColor=#9673a6;" vertex="1" parent="1">
          <mxGeometry x="-110" y="345.5" width="200" height="60" as="geometry" />
        </mxCell>
        <mxCell id="l_ol0fPT-9OiquwSYkWa-59" value="Interventions" style="rounded=1;fillColor=#dae8fc;strokeColor=#6c8ebf;shadow=1;fontStyle=1;fontSize=14;" vertex="1" parent="1">
          <mxGeometry x="928" y="455.5" width="200" height="60" as="geometry" />
        </mxCell>
        <mxCell id="l_ol0fPT-9OiquwSYkWa-60" value="Surpoids &amp; Obesite" style="rounded=1;fillColor=#dae8fc;strokeColor=#6c8ebf;shadow=1;fontStyle=1;fontSize=14;" vertex="1" parent="1">
          <mxGeometry x="1188" y="455.5" width="200" height="60" as="geometry" />
        </mxCell>
        <mxCell id="l_ol0fPT-9OiquwSYkWa-61" value="Questions" style="rounded=1;fillColor=#dae8fc;strokeColor=#6c8ebf;shadow=1;fontStyle=1;fontSize=14;" vertex="1" parent="1">
          <mxGeometry x="1448" y="455.5" width="200" height="60" as="geometry" />
        </mxCell>
        <mxCell id="l_ol0fPT-9OiquwSYkWa-62" value="Array [Actualites]" style="rounded=1;shadow=1;fontStyle=1;fontSize=14;fillColor=#f5f5f5;strokeColor=#666666;fontColor=#333333;" vertex="1" parent="1">
          <mxGeometry x="-110" y="570" width="200" height="60" as="geometry" />
        </mxCell>
        <mxCell id="l_ol0fPT-9OiquwSYkWa-63" value="Actualite Page" style="rounded=1;shadow=1;fontStyle=1;fontSize=14;fillColor=#ffe6cc;strokeColor=#d79b00;" vertex="1" parent="1">
          <mxGeometry x="-110" y="680" width="200" height="60" as="geometry" />
        </mxCell>
        <mxCell id="l_ol0fPT-9OiquwSYkWa-64" value="" style="endArrow=none;html=1;entryX=0.5;entryY=1;entryDx=0;entryDy=0;" edge="1" parent="1" source="4" target="l_ol0fPT-9OiquwSYkWa-58">
          <mxGeometry width="50" height="50" relative="1" as="geometry">
            <mxPoint x="430" y="740" as="sourcePoint" />
            <mxPoint x="480" y="690" as="targetPoint" />
          </mxGeometry>
        </mxCell>
        <mxCell id="l_ol0fPT-9OiquwSYkWa-65" value="" style="endArrow=none;html=1;entryX=0.5;entryY=1;entryDx=0;entryDy=0;exitX=0.5;exitY=0;exitDx=0;exitDy=0;" edge="1" parent="1" source="l_ol0fPT-9OiquwSYkWa-62" target="4">
          <mxGeometry width="50" height="50" relative="1" as="geometry">
            <mxPoint y="465.5" as="sourcePoint" />
            <mxPoint y="415.5" as="targetPoint" />
            <Array as="points" />
          </mxGeometry>
        </mxCell>
        <mxCell id="l_ol0fPT-9OiquwSYkWa-66" value="" style="endArrow=none;html=1;entryX=0.5;entryY=1;entryDx=0;entryDy=0;exitX=0.5;exitY=0;exitDx=0;exitDy=0;" edge="1" parent="1" source="l_ol0fPT-9OiquwSYkWa-63" target="l_ol0fPT-9OiquwSYkWa-62">
          <mxGeometry width="50" height="50" relative="1" as="geometry">
            <mxPoint x="10" y="475.5" as="sourcePoint" />
            <mxPoint x="10" y="425.5" as="targetPoint" />
          </mxGeometry>
        </mxCell>
        <mxCell id="l_ol0fPT-9OiquwSYkWa-67" value="" style="endArrow=classic;html=1;exitX=0;exitY=0.5;exitDx=0;exitDy=0;entryX=0;entryY=0.5;entryDx=0;entryDy=0;" edge="1" parent="1" source="l_ol0fPT-9OiquwSYkWa-58" target="l_ol0fPT-9OiquwSYkWa-63">
          <mxGeometry width="50" height="50" relative="1" as="geometry">
            <mxPoint x="150" y="820" as="sourcePoint" />
            <mxPoint x="370" y="690" as="targetPoint" />
            <Array as="points">
              <mxPoint x="-170" y="550" />
            </Array>
          </mxGeometry>
        </mxCell>
        <mxCell id="l_ol0fPT-9OiquwSYkWa-68" value="Actualites[Id]" style="rounded=1;shadow=1;fontStyle=1;fontSize=14;fillColor=#f5f5f5;strokeColor=#666666;fontColor=#333333;" vertex="1" parent="1">
          <mxGeometry x="-320" y="531" width="130" height="39" as="geometry" />
        </mxCell>
        <mxCell id="l_ol0fPT-9OiquwSYkWa-69" value="Array [Documents] L=10" style="rounded=1;shadow=1;fontStyle=1;fontSize=14;fillColor=#f5f5f5;strokeColor=#666666;fontColor=#333333;" vertex="1" parent="1">
          <mxGeometry x="152" y="570" width="200" height="60" as="geometry" />
        </mxCell>
        <mxCell id="l_ol0fPT-9OiquwSYkWa-70" value="Modal [Document]" style="rounded=1;shadow=1;fontStyle=1;fontSize=14;fillColor=#ffe6cc;strokeColor=#d79b00;" vertex="1" parent="1">
          <mxGeometry x="152" y="680" width="200" height="60" as="geometry" />
        </mxCell>
        <mxCell id="l_ol0fPT-9OiquwSYkWa-71" value="" style="endArrow=none;html=1;entryX=0.5;entryY=1;entryDx=0;entryDy=0;exitX=0.5;exitY=0;exitDx=0;exitDy=0;" edge="1" parent="1" source="l_ol0fPT-9OiquwSYkWa-69">
          <mxGeometry width="50" height="50" relative="1" as="geometry">
            <mxPoint x="262" y="465.5" as="sourcePoint" />
            <mxPoint x="252" y="515.5" as="targetPoint" />
            <Array as="points" />
          </mxGeometry>
        </mxCell>
        <mxCell id="l_ol0fPT-9OiquwSYkWa-72" value="" style="endArrow=none;html=1;entryX=0.5;entryY=1;entryDx=0;entryDy=0;exitX=0.5;exitY=0;exitDx=0;exitDy=0;" edge="1" parent="1" source="l_ol0fPT-9OiquwSYkWa-70" target="l_ol0fPT-9OiquwSYkWa-69">
          <mxGeometry width="50" height="50" relative="1" as="geometry">
            <mxPoint x="272" y="475.5" as="sourcePoint" />
            <mxPoint x="272" y="425.5" as="targetPoint" />
          </mxGeometry>
        </mxCell>
        <mxCell id="l_ol0fPT-9OiquwSYkWa-73" value="" style="endArrow=classic;html=1;entryX=1;entryY=0.5;entryDx=0;entryDy=0;fillColor=#e1d5e7;strokeColor=#9673a6;" edge="1" parent="1" target="l_ol0fPT-9OiquwSYkWa-58">
          <mxGeometry width="50" height="50" relative="1" as="geometry">
            <mxPoint x="660" y="375" as="sourcePoint" />
            <mxPoint x="540" y="530" as="targetPoint" />
          </mxGeometry>
        </mxCell>
        <mxCell id="l_ol0fPT-9OiquwSYkWa-74" value="Search" style="rounded=1;shadow=1;fontStyle=1;fontSize=14;fillColor=#e1d5e7;strokeColor=#9673a6;" vertex="1" parent="1">
          <mxGeometry x="672" y="250" width="200" height="60" as="geometry" />
        </mxCell>
        <mxCell id="l_ol0fPT-9OiquwSYkWa-75" value="" style="endArrow=classic;html=1;entryX=0.5;entryY=1;entryDx=0;entryDy=0;fillColor=#e1d5e7;strokeColor=#9673a6;exitX=0.5;exitY=0;exitDx=0;exitDy=0;" edge="1" parent="1" source="3" target="l_ol0fPT-9OiquwSYkWa-74">
          <mxGeometry width="50" height="50" relative="1" as="geometry">
            <mxPoint x="670" y="385" as="sourcePoint" />
            <mxPoint x="100" y="385.4999999999998" as="targetPoint" />
          </mxGeometry>
        </mxCell>
        <mxCell id="l_ol0fPT-9OiquwSYkWa-76" value="Prendre RDV" style="rounded=1;shadow=1;fontStyle=1;fontSize=14;fillColor=#e1d5e7;strokeColor=#9673a6;" vertex="1" parent="1">
          <mxGeometry x="930" y="345.5" width="200" height="60" as="geometry" />
        </mxCell>
        <mxCell id="l_ol0fPT-9OiquwSYkWa-77" value="" style="endArrow=classic;html=1;fillColor=#e1d5e7;strokeColor=#9673a6;exitX=1;exitY=0.5;exitDx=0;exitDy=0;entryX=0;entryY=0.5;entryDx=0;entryDy=0;" edge="1" parent="1" source="3" target="l_ol0fPT-9OiquwSYkWa-76">
          <mxGeometry width="50" height="50" relative="1" as="geometry">
            <mxPoint x="1110" y="350" as="sourcePoint" />
            <mxPoint x="1000" y="210" as="targetPoint" />
          </mxGeometry>
        </mxCell>
        <mxCell id="l_ol0fPT-9OiquwSYkWa-78" value="Content" style="rounded=1;shadow=1;fontStyle=1;fontSize=14;fillColor=#f5f5f5;strokeColor=#666666;fontColor=#333333;" vertex="1" parent="1">
          <mxGeometry x="410" y="570" width="200" height="60" as="geometry" />
        </mxCell>
        <mxCell id="l_ol0fPT-9OiquwSYkWa-79" value="" style="endArrow=none;html=1;entryX=0.5;entryY=1;entryDx=0;entryDy=0;exitX=0.5;exitY=0;exitDx=0;exitDy=0;" edge="1" parent="1" source="l_ol0fPT-9OiquwSYkWa-78">
          <mxGeometry width="50" height="50" relative="1" as="geometry">
            <mxPoint x="520" y="465.5" as="sourcePoint" />
            <mxPoint x="510" y="515.5" as="targetPoint" />
            <Array as="points" />
          </mxGeometry>
        </mxCell>
        <mxCell id="l_ol0fPT-9OiquwSYkWa-80" value="Array [Interventions] L=4" style="rounded=1;shadow=1;fontStyle=1;fontSize=14;fillColor=#f5f5f5;strokeColor=#666666;fontColor=#333333;" vertex="1" parent="1">
          <mxGeometry x="676.5" y="570" width="200" height="60" as="geometry" />
        </mxCell>
        <mxCell id="l_ol0fPT-9OiquwSYkWa-81" value="" style="endArrow=none;html=1;entryX=0.5;entryY=1;entryDx=0;entryDy=0;exitX=0.5;exitY=0;exitDx=0;exitDy=0;" edge="1" parent="1" source="l_ol0fPT-9OiquwSYkWa-80">
          <mxGeometry width="50" height="50" relative="1" as="geometry">
            <mxPoint x="786.5" y="465.5" as="sourcePoint" />
            <mxPoint x="776.5" y="515.5" as="targetPoint" />
            <Array as="points" />
          </mxGeometry>
        </mxCell>
        <mxCell id="l_ol0fPT-9OiquwSYkWa-82" value="Dropdown List [Intervention]" style="rounded=1;shadow=1;fontStyle=1;fontSize=14;fillColor=#ffe6cc;strokeColor=#d79b00;" vertex="1" parent="1">
          <mxGeometry x="654.75" y="680" width="243.5" height="60" as="geometry" />
        </mxCell>
        <mxCell id="l_ol0fPT-9OiquwSYkWa-83" value="" style="endArrow=none;html=1;entryX=0.5;entryY=1;entryDx=0;entryDy=0;exitX=0.5;exitY=0;exitDx=0;exitDy=0;" edge="1" parent="1" source="l_ol0fPT-9OiquwSYkWa-82">
          <mxGeometry width="50" height="50" relative="1" as="geometry">
            <mxPoint x="796.5" y="475.5" as="sourcePoint" />
            <mxPoint x="776.5" y="630" as="targetPoint" />
          </mxGeometry>
        </mxCell>
        <mxCell id="l_ol0fPT-9OiquwSYkWa-84" value="Array [Interventions] L=6" style="rounded=1;shadow=1;fontStyle=1;fontSize=14;fillColor=#f5f5f5;strokeColor=#666666;fontColor=#333333;" vertex="1" parent="1">
          <mxGeometry x="930" y="570" width="200" height="60" as="geometry" />
        </mxCell>
        <mxCell id="l_ol0fPT-9OiquwSYkWa-85" value="" style="endArrow=none;html=1;entryX=0.5;entryY=1;entryDx=0;entryDy=0;exitX=0.5;exitY=0;exitDx=0;exitDy=0;" edge="1" parent="1" source="l_ol0fPT-9OiquwSYkWa-84">
          <mxGeometry width="50" height="50" relative="1" as="geometry">
            <mxPoint x="1040" y="465.5" as="sourcePoint" />
            <mxPoint x="1030" y="515.5" as="targetPoint" />
            <Array as="points" />
          </mxGeometry>
        </mxCell>
        <mxCell id="l_ol0fPT-9OiquwSYkWa-86" value="List [Intervention]" style="rounded=1;shadow=1;fontStyle=1;fontSize=14;fillColor=#ffe6cc;strokeColor=#d79b00;" vertex="1" parent="1">
          <mxGeometry x="934.12" y="680" width="191.75" height="60" as="geometry" />
        </mxCell>
        <mxCell id="l_ol0fPT-9OiquwSYkWa-87" value="" style="endArrow=none;html=1;entryX=0.5;entryY=1;entryDx=0;entryDy=0;exitX=0.5;exitY=0;exitDx=0;exitDy=0;" edge="1" parent="1" source="l_ol0fPT-9OiquwSYkWa-86">
          <mxGeometry width="50" height="50" relative="1" as="geometry">
            <mxPoint x="1050" y="475.5" as="sourcePoint" />
            <mxPoint x="1030" y="630" as="targetPoint" />
          </mxGeometry>
        </mxCell>
        <mxCell id="l_ol0fPT-9OiquwSYkWa-88" value="Modal [Intervention]" style="rounded=1;shadow=1;fontStyle=1;fontSize=14;fillColor=#ffe6cc;strokeColor=#d79b00;" vertex="1" parent="1">
          <mxGeometry x="934.12" y="790" width="191.75" height="60" as="geometry" />
        </mxCell>
        <mxCell id="l_ol0fPT-9OiquwSYkWa-89" value="" style="endArrow=none;html=1;entryX=0.5;entryY=1;entryDx=0;entryDy=0;exitX=0.5;exitY=0;exitDx=0;exitDy=0;" edge="1" parent="1" source="l_ol0fPT-9OiquwSYkWa-88">
          <mxGeometry width="50" height="50" relative="1" as="geometry">
            <mxPoint x="1050" y="585.5" as="sourcePoint" />
            <mxPoint x="1030" y="740" as="targetPoint" />
          </mxGeometry>
        </mxCell>
        <mxCell id="l_ol0fPT-9OiquwSYkWa-90" value="Content + Links" style="rounded=1;shadow=1;fontStyle=1;fontSize=14;fillColor=#f5f5f5;strokeColor=#666666;fontColor=#333333;" vertex="1" parent="1">
          <mxGeometry x="1188" y="570" width="200" height="60" as="geometry" />
        </mxCell>
        <mxCell id="l_ol0fPT-9OiquwSYkWa-91" value="" style="endArrow=none;html=1;entryX=0.5;entryY=1;entryDx=0;entryDy=0;exitX=0.5;exitY=0;exitDx=0;exitDy=0;" edge="1" parent="1" source="l_ol0fPT-9OiquwSYkWa-90">
          <mxGeometry width="50" height="50" relative="1" as="geometry">
            <mxPoint x="1298" y="465.5" as="sourcePoint" />
            <mxPoint x="1288" y="515.5" as="targetPoint" />
            <Array as="points" />
          </mxGeometry>
        </mxCell>
        <mxCell id="l_ol0fPT-9OiquwSYkWa-92" value="Dropdown List [from Link]" style="rounded=1;shadow=1;fontStyle=1;fontSize=14;fillColor=#ffe6cc;strokeColor=#d79b00;" vertex="1" parent="1">
          <mxGeometry x="1192.12" y="680" width="191.75" height="60" as="geometry" />
        </mxCell>
        <mxCell id="l_ol0fPT-9OiquwSYkWa-93" value="" style="endArrow=none;html=1;entryX=0.5;entryY=1;entryDx=0;entryDy=0;exitX=0.5;exitY=0;exitDx=0;exitDy=0;" edge="1" parent="1" source="l_ol0fPT-9OiquwSYkWa-92">
          <mxGeometry width="50" height="50" relative="1" as="geometry">
            <mxPoint x="1308" y="475.5" as="sourcePoint" />
            <mxPoint x="1288" y="630" as="targetPoint" />
          </mxGeometry>
        </mxCell>
        <mxCell id="l_ol0fPT-9OiquwSYkWa-94" value="List Item [by Topic]" style="rounded=1;shadow=1;fontStyle=1;fontSize=14;fillColor=#ffe6cc;strokeColor=#d79b00;" vertex="1" parent="1">
          <mxGeometry x="1192.12" y="790" width="191.75" height="60" as="geometry" />
        </mxCell>
        <mxCell id="l_ol0fPT-9OiquwSYkWa-95" value="" style="endArrow=none;html=1;entryX=0.5;entryY=1;entryDx=0;entryDy=0;exitX=0.5;exitY=0;exitDx=0;exitDy=0;" edge="1" parent="1" source="l_ol0fPT-9OiquwSYkWa-94">
          <mxGeometry width="50" height="50" relative="1" as="geometry">
            <mxPoint x="1308" y="585.5" as="sourcePoint" />
            <mxPoint x="1288" y="740" as="targetPoint" />
          </mxGeometry>
        </mxCell>
        <mxCell id="l_ol0fPT-9OiquwSYkWa-96" value="Array [Lists] L=7" style="rounded=1;shadow=1;fontStyle=1;fontSize=14;fillColor=#f5f5f5;strokeColor=#666666;fontColor=#333333;" vertex="1" parent="1">
          <mxGeometry x="1448" y="570" width="200" height="60" as="geometry" />
        </mxCell>
        <mxCell id="l_ol0fPT-9OiquwSYkWa-97" value="" style="endArrow=none;html=1;entryX=0.5;entryY=1;entryDx=0;entryDy=0;exitX=0.5;exitY=0;exitDx=0;exitDy=0;" edge="1" parent="1" source="l_ol0fPT-9OiquwSYkWa-96">
          <mxGeometry width="50" height="50" relative="1" as="geometry">
            <mxPoint x="1558" y="465.5" as="sourcePoint" />
            <mxPoint x="1548" y="515.5" as="targetPoint" />
            <Array as="points" />
          </mxGeometry>
        </mxCell>
        <mxCell id="l_ol0fPT-9OiquwSYkWa-98" value="List [Questions]" style="rounded=1;shadow=1;fontStyle=1;fontSize=14;fillColor=#ffe6cc;strokeColor=#d79b00;" vertex="1" parent="1">
          <mxGeometry x="1452.12" y="680" width="191.75" height="60" as="geometry" />
        </mxCell>
        <mxCell id="l_ol0fPT-9OiquwSYkWa-99" value="" style="endArrow=none;html=1;entryX=0.5;entryY=1;entryDx=0;entryDy=0;exitX=0.5;exitY=0;exitDx=0;exitDy=0;" edge="1" parent="1" source="l_ol0fPT-9OiquwSYkWa-98">
          <mxGeometry width="50" height="50" relative="1" as="geometry">
            <mxPoint x="1568" y="475.5" as="sourcePoint" />
            <mxPoint x="1548" y="630" as="targetPoint" />
          </mxGeometry>
        </mxCell>
        <mxCell id="l_ol0fPT-9OiquwSYkWa-100" value="List Item [Question]" style="rounded=1;shadow=1;fontStyle=1;fontSize=14;fillColor=#ffe6cc;strokeColor=#d79b00;" vertex="1" parent="1">
          <mxGeometry x="1452.12" y="790" width="191.75" height="60" as="geometry" />
        </mxCell>
        <mxCell id="l_ol0fPT-9OiquwSYkWa-101" value="" style="endArrow=none;html=1;entryX=0.5;entryY=1;entryDx=0;entryDy=0;exitX=0.5;exitY=0;exitDx=0;exitDy=0;" edge="1" parent="1" source="l_ol0fPT-9OiquwSYkWa-100">
          <mxGeometry width="50" height="50" relative="1" as="geometry">
            <mxPoint x="1568" y="585.5" as="sourcePoint" />
            <mxPoint x="1548" y="740" as="targetPoint" />
          </mxGeometry>
        </mxCell>
      </root>
    </mxGraphModel>
  </diagram>
</mxfile>
